PathFileType	4	(X/Y/Z)	c:/Users/goper/Files/vsCode/490R/osim_files/C05/C05_Fast_06.trc
DataRate	CameraRate	NumFrames	NumMarkers	Units                	OrigDataRate	OrigDataStartFrame	OrigNumFrames
250.00	250.00	6	36	mm	250.0	1217	2432
                Frame#	Time	LPSIS			LASIS			LTH1			LTH2			LTH3			LTH4			LLFE			LMFE			LSH1			LSH2			LSH3			LSH4			LLMAL			LMMAL			LCAL			LMTP5			LTOE			LMTP1			RPSIS			RASIS			RTH1			RTH2			RTH3			RTH4			RLFE			RMFE			RSH1			RSH2			RSH3			RSH4			RLMAL			RMMAL			RCAL			RMTP1			RTOE			RMTP5		
		X1	Y1	Z1	X2	Y2	Z2	X3	Y3	Z3	X4	Y4	Z4	X5	Y5	Z5	X6	Y6	Z6	X7	Y7	Z7	X8	Y8	Z8	X9	Y9	Z9	X10	Y10	Z10	X11	Y11	Z11	X12	Y12	Z12	X13	Y13	Z13	X14	Y14	Z14	X15	Y15	Z15	X16	Y16	Z16	X17	Y17	Z17	X18	Y18	Z18	X19	Y19	Z19	X20	Y20	Z20	X21	Y21	Z21	X22	Y22	Z22	X23	Y23	Z23	X24	Y24	Z24	X25	Y25	Z25	X26	Y26	Z26	X27	Y27	Z27	X28	Y28	Z28	X29	Y29	Z29	X30	Y30	Z30	X31	Y31	Z31	X32	Y32	Z32	X33	Y33	Z33	X34	Y34	Z34	X35	Y35	Z35	X36	Y36	Z36

1217	4.86400	554.14368	1038.81641	316.31918	353.17966	1009.46521	367.13409	400.56229	689.59064	416.53333	379.84894	631.47394	404.64990	327.64212	710.80328	407.62723	317.88892	649.74969	400.08548	320.42792	539.17896	375.65155	331.80502	534.55780	261.48544	416.25244	362.57974	384.92236	413.90823	318.82321	378.98721	352.61688	358.11929	393.19214	360.35303	315.16913	383.64236	408.88284	95.72179	345.50659	378.46249	109.96978	264.07599	465.09769	67.16032	290.94186	270.17905	41.05544	380.20609	230.71262	66.91136	321.59274	241.01768	53.57450	273.15625	553.12238	1037.24280	206.98512	363.16547	997.57422	135.48047	416.52197	638.20209	102.35210	391.86603	581.63629	111.19830	346.40396	661.40533	89.68464	330.77374	600.81335	99.82890	0.00000	0.00000	0.00000	335.17252	502.58090	115.33467	487.97006	458.90796	101.89771	523.82294	426.30054	103.60310	453.68268	407.27307	99.98299	492.94583	382.86633	102.24671	708.59064	278.62759	123.97349	686.01855	259.42508	208.91153	767.01685	311.92175	175.47221	679.27600	113.60966	195.28271	646.95520	113.15300	147.03577	701.11102	137.24066	86.58665
1218	4.86800	548.61798	1039.96448	316.46320	347.36227	1010.52783	367.44089	397.76697	690.50800	417.00180	377.26553	632.02496	405.16837	324.31613	710.89587	408.14355	315.14670	649.96204	400.69965	318.99380	539.15405	376.38303	330.19464	534.41528	261.86035	415.73047	362.98706	384.67062	413.49722	319.17804	378.87210	352.20795	358.22681	393.59616	360.67065	315.85446	385.05829	408.69785	95.89998	345.55237	378.20767	110.13344	264.14905	465.04584	67.35757	290.93079	270.13062	40.98271	380.32181	230.57977	66.74593	321.68945	240.99223	53.55910	273.19174	547.59436	1038.45691	207.18394	357.75729	999.11365	136.03548	408.02649	640.20172	102.52721	382.04288	583.63232	111.31087	337.35022	663.84662	89.80473	321.09348	603.37988	100.02055	0.00000	0.00000	0.00000	324.60345	505.26279	115.60513	476.23822	459.75443	103.02345	512.20367	427.00223	104.37630	441.81082	408.70279	100.63828	481.85016	384.24985	103.09315	694.52942	277.12286	124.78289	672.53131	258.52695	209.76804	754.35852	309.88892	176.20769	663.38837	112.91850	196.08356	631.25238	112.90567	148.06882	685.77618	136.13490	87.47936
1219	4.87200	543.31079	1041.11230	316.59488	342.09982	1011.44580	368.02951	394.71692	691.21295	417.36633	374.65936	632.54138	405.71213	320.79785	710.70453	407.17722	312.37723	650.13513	401.27435	317.51559	539.08649	377.07938	328.24130	534.35632	262.38217	415.22537	363.38834	384.46454	413.11340	319.53632	378.73175	351.78955	358.33069	393.98425	360.31738	316.04327	385.41232	408.46497	96.07231	345.59085	377.95581	110.27739	264.18182	464.91348	67.53033	290.87372	270.06931	40.92408	380.38339	230.42702	66.55013	321.77264	240.69760	53.33753	273.40695	542.16296	1039.71826	207.28465	352.33505	1000.55835	136.61052	398.62769	641.88928	102.58350	372.27493	585.67822	111.48193	328.36386	666.26733	89.93301	311.53806	605.99054	100.21301	0.00000	0.00000	0.00000	313.37701	507.56393	116.32569	465.23450	460.94833	103.34324	500.61868	427.66196	105.15665	429.86139	409.96906	101.24957	469.49509	385.02023	103.74593	680.70441	275.35837	125.78330	659.04877	257.48785	210.55739	741.58105	307.53976	176.91832	647.63080	111.99371	196.96559	615.77081	112.55114	148.89188	670.20996	134.86079	88.36303
1220	4.87600	537.87482	1042.14758	316.80786	336.37363	1012.34570	368.77573	391.72299	691.87878	417.79785	372.19196	633.10101	406.18094	317.84949	710.68115	408.28397	309.73871	650.24005	401.95395	315.99777	539.02008	377.76642	328.84195	535.12396	263.02576	414.68271	363.72940	384.26703	412.71915	319.90350	378.58350	351.34320	358.46805	394.35245	359.96826	316.23816	385.76849	408.26767	96.24635	345.63370	377.63669	110.46864	264.26944	464.79654	67.69437	290.84067	269.99637	40.86357	380.47238	230.30791	66.37251	321.83972	240.72156	53.34245	273.37622	536.68097	1040.85388	207.47749	346.86362	1002.00690	137.10300	389.53198	643.58679	102.66945	362.58560	587.66119	111.63174	319.49890	668.75641	90.03091	302.02142	608.67651	100.38978	0.00000	0.00000	0.00000	302.65381	510.18085	116.80042	453.80347	461.71072	104.43594	489.19547	428.31754	105.93848	418.43842	411.46213	101.87031	457.51025	385.97946	104.40497	667.00616	273.31387	126.51749	645.41046	256.20419	211.36935	728.75922	305.00266	177.56323	631.72083	110.98502	197.85880	599.64758	112.07064	149.83179	654.46844	133.40649	89.19306
1221	4.88000	532.62146	1043.27283	316.90860	331.52234	1013.20575	369.05923	388.86801	692.51050	418.18066	369.72067	633.56049	406.61639	314.77750	710.75726	408.92374	307.08896	650.33124	402.37924	314.68878	538.99438	378.34375	324.16718	534.69397	263.51764	414.13876	364.09000	384.04214	412.21124	320.21005	378.40057	350.93372	358.59827	394.66885	359.67773	316.38593	386.05856	408.07355	96.42503	345.63242	377.13977	110.68626	264.43747	464.72076	67.88802	290.79321	269.94977	40.80272	380.50912	230.17084	66.19593	321.90158	240.54747	53.27410	273.45496	531.22235	1042.02209	207.62129	341.30734	1003.40100	137.79590	380.50815	645.34802	102.69698	353.06955	589.74744	111.76087	311.53336	671.56995	89.93358	292.57730	611.35455	100.59100	0.00000	0.00000	0.00000	292.06931	512.74243	117.17287	442.70444	462.59033	105.10835	476.83444	428.33136	106.52979	406.71640	412.77039	102.48805	444.92377	386.57077	104.96709	653.43958	271.51526	127.31127	631.66583	254.81926	212.08887	715.83429	302.25397	178.14842	615.65314	109.84036	198.67419	583.51019	111.48481	150.70598	638.54236	131.77821	90.04953
1222	4.88400	527.26440	1044.28845	317.05157	326.62454	1013.94574	369.76663	385.95236	693.17670	418.53116	367.35748	634.05359	407.00427	311.80707	710.80750	409.48407	304.46286	650.38745	402.76917	313.18890	538.93280	378.84293	321.99081	534.71863	263.71094	413.57449	364.50467	383.87897	411.87595	320.67111	378.26254	350.47607	358.76077	394.94946	359.37955	316.57126	386.28293	407.87869	96.58566	345.61673	376.80984	110.81614	264.41632	464.64774	68.11678	290.72662	269.92944	40.78580	380.55737	230.06837	66.02864	321.94678	240.43315	53.16932	273.50287	525.83179	1043.07593	207.71599	335.88229	1004.73975	138.37988	371.62314	647.12683	102.78136	344.12946	592.18842	111.54628	300.97305	672.82941	91.27940	283.33789	614.04718	100.75473	0.00000	0.00000	0.00000	281.46500	515.32831	117.57284	432.11795	463.76947	105.48161	465.83194	428.97107	107.28660	395.02136	414.06143	103.10696	433.23813	387.52692	105.65539	639.77808	269.52042	128.02304	617.95953	253.30437	212.76927	702.82544	299.25015	178.69203	599.34210	108.61552	199.46811	567.21063	110.80601	151.55826	622.71399	130.13342	90.79663
